<svg xmlns="http://www.w3.org/2000/svg" xmlns:xlink="http://www.w3.org/1999/xlink" version="1.1" id="Layer_1" x="0px" y="0px" width="100%" viewBox="-3 -3 854 566" enable-background="new 0 0 848 560" xml:space="preserve"><g id="deeditor_bgCarrier" stroke-width="0">
    <rect id="dee_c_e" x="-3" y="-3" width="854" height="566" rx="0" fill="#000000" strokewidth="0"/>
  </g>
<path fill="#fafafa" opacity="1.000000" stroke="none" d=" M600.519287,323.457275   C614.574524,331.749664 630.013245,334.900665 645.257507,338.240723   C671.329773,343.953278 697.746643,347.494781 724.515747,346.515259   C734.999207,346.131653 745.488220,345.199615 755.958862,345.755157   C778.224487,346.936493 797.082703,354.897034 809.849487,374.246460   C814.138428,380.746796 816.665100,387.914307 818.308228,395.459076   C819.383484,400.396332 821.261841,404.927582 824.534607,408.914307   C828.935608,414.275299 830.435181,420.894226 831.051453,427.521820   C831.603455,433.458832 831.181458,439.497681 831.020569,445.487091   C830.759644,455.198486 825.139648,462.215271 818.935120,468.879547   C802.938049,486.062195 783.055725,497.392395 761.799805,506.596191   C730.573975,520.116882 697.724670,527.616943 664.339722,533.489563   C647.628723,536.429077 630.946655,536.940002 614.109192,536.929749   C504.288269,536.862976 394.467224,536.960205 284.646362,536.863220   C253.155640,536.835388 221.654572,536.764465 190.177429,535.961304   C147.548340,534.873474 105.106384,531.410156 63.225361,522.858643   C58.340614,521.861267 53.525375,520.482239 48.729107,519.102234   C41.092667,516.905090 37.846756,510.975800 35.840282,503.874512   C28.987982,479.622894 29.150602,455.273560 33.977375,430.687042   C35.541199,422.721283 35.821770,414.495850 35.442081,406.318634   C34.281822,381.330536 34.007847,356.351685 37.713535,331.530762   C39.553406,319.207214 42.255951,307.012634 44.104362,294.690125   C45.681065,284.178955 45.157845,273.406403 47.710739,262.993896   C48.224434,260.898682 48.490643,258.532562 49.665253,256.843811   C57.201172,246.009277 58.159206,233.225388 60.600269,220.897034   C64.704521,200.168839 67.066238,179.184982 69.768181,158.243820   C71.281837,146.512314 74.586456,135.162003 79.627129,124.330894   C85.254761,112.238579 94.204018,105.139618 107.482132,102.600418   C127.115654,98.845856 146.973083,96.798729 166.711700,93.874290   C198.101837,89.223602 227.912140,79.686592 256.577515,66.195053   C275.721680,57.184723 295.138214,48.840553 315.895660,44.033096   C325.420532,41.827129 335.021790,41.047447 344.673279,41.769531   C352.632385,42.364994 358.327301,47.746773 363.628235,53.015755   C377.044952,66.351608 385.122314,82.885414 391.332153,100.509491   C396.404572,114.905495 398.817444,129.799438 400.287659,144.899475   C400.664093,148.765640 401.639435,152.460007 403.580444,155.808914   C409.751434,166.455902 412.527618,177.993286 412.517395,190.199402   C412.511353,197.429321 415.037384,203.678131 418.166473,210.080475   C424.503998,223.047668 433.476318,232.865234 446.284576,239.932297   C459.239136,247.080078 471.364685,255.733139 483.824890,263.771027   C485.683228,264.969788 487.571777,266.270630 489.811920,265.869812   C503.863525,263.355743 514.669678,270.336121 525.782715,277.353577   C550.427124,292.915436 575.376526,307.994110 600.519287,323.457275  M288.263092,376.409729   C260.695984,366.709595 233.128876,357.009460 204.712372,347.010468   C205.357513,348.619720 205.460159,349.508301 205.954361,350.015045   C215.600601,359.906067 220.553436,372.601807 226.562729,384.634827   C233.926392,399.379822 240.987534,414.275726 248.200043,429.096405   C250.391541,433.599609 253.138565,437.057373 258.831085,437.670380   C281.349335,440.095245 303.977631,440.923706 326.545197,442.603851   C342.813843,443.815063 359.144623,444.165222 375.433990,445.130493   C407.517120,447.031799 439.594086,448.938507 471.756256,448.888611   C475.689453,448.882507 477.632538,447.492249 479.346741,444.022736   C494.365997,413.624512 496.640778,381.119171 495.604858,348.032898   C495.423553,342.241669 493.120911,338.006866 487.535614,335.439514   C481.948914,332.871521 476.621887,329.717651 471.267731,326.668396   C451.052246,315.155426 433.037506,300.602631 415.114136,285.920807   C405.512329,278.055511 394.705231,273.817200 382.024780,274.082001   C372.216461,274.286835 362.389587,273.350037 352.566345,273.158295   C340.423859,272.921295 330.301727,268.791595 324.023193,257.980835   C321.322174,253.330154 318.925049,253.393097 314.562622,255.721527   C293.520142,266.952759 271.675537,276.370087 249.024765,283.929230   C224.168854,292.224335 198.696991,295.343140 172.671066,292.777527   C149.212036,290.464935 126.570068,284.247894 104.265152,276.815399   C95.581589,273.921814 86.992371,270.745880 78.344879,267.742615   C76.158524,266.983276 74.042084,265.902313 72.865250,269.491730   C71.710754,273.012970 73.470634,273.998810 76.182175,274.730957   C76.985229,274.947845 77.765190,275.248871 78.564331,275.481812   C118.041313,286.989838 157.505157,298.543274 197.000946,309.986420   C239.053833,322.170471 281.120911,334.306488 323.218048,346.336456   C334.330017,349.511871 345.641052,349.178131 356.846771,346.717041   C364.954895,344.936279 371.446960,337.580383 372.845367,329.455780   C374.791595,318.148590 371.340271,307.748016 367.782776,297.319519   C367.075989,295.247620 364.745087,292.774536 366.803833,290.918915   C368.977722,288.959473 371.523132,291.221649 373.622742,292.306641   C388.520508,300.005035 401.924103,309.699646 413.823944,321.611176   C425.405121,333.203674 430.103729,347.146973 430.095245,363.184235   C430.090057,372.982574 425.874878,380.452820 418.398926,386.355469   C413.574554,390.164581 407.902618,392.149414 401.995758,393.362946   C385.234863,396.806458 368.477814,395.207214 351.798553,392.741730   C330.328278,389.568024 309.595398,383.388641 288.263092,376.409729  M521.500000,510.693939   C546.665771,510.673737 571.832520,510.777893 596.996948,510.585510   C611.487732,510.474731 626.012329,510.411163 640.454834,509.385345   C661.744385,507.873230 682.685059,503.811707 703.370728,498.582977   C728.326416,492.274841 752.674683,484.347260 774.702026,470.569183   C782.865479,465.462982 790.857544,460.111633 798.632690,452.428680   C785.486389,456.634216 773.631653,460.877838 761.527893,464.219971   C711.201904,478.116058 659.544983,483.372894 607.700134,487.064850   C589.267273,488.377533 570.760864,488.639343 552.291870,489.466309   C517.808716,491.010254 483.303802,490.716187 448.828308,489.859863   C413.209412,488.975098 377.581238,487.847198 342.022461,485.306793   C325.420685,484.120758 308.772766,483.450104 292.211212,481.863007   C269.192108,479.657104 246.139221,477.837952 223.124756,475.547913   C196.961823,472.944550 170.829330,470.111694 144.722610,467.046173   C116.809250,463.768494 88.937729,460.132446 61.057323,456.579254   C57.695278,456.150818 55.909416,456.953033 56.219177,460.696716   C56.986885,469.974792 57.333519,479.282104 59.277859,488.448639   C60.385414,493.670166 63.150097,496.387115 68.448448,497.443207   C90.509102,501.840546 112.750458,505.078339 135.172455,506.437622   C177.072113,508.977722 219.042175,510.322021 261.011719,510.502960   C347.506470,510.875824 434.003754,510.664215 521.500000,510.693939  M328.461365,148.565460   C328.472290,138.949341 333.298645,132.602676 341.870605,128.785538   C343.696411,127.972488 345.504242,127.118103 347.307892,126.256676   C348.955139,125.469917 349.758606,124.236572 349.794495,122.313194   C350.040405,109.132561 337.890411,98.675667 324.921265,100.631035   C309.835724,102.905479 295.504486,107.731003 281.239929,112.859810   C244.704071,125.996201 208.995697,141.186401 173.370895,156.562851   C148.143326,167.451645 122.891571,178.301819 98.212379,190.422119   C95.087547,191.956741 93.464188,193.950745 92.704887,197.420364   C89.432343,212.374222 86.509827,227.391525 83.642654,242.426086   C82.663002,247.563095 83.928207,250.411163 88.997002,252.324570   C103.034683,257.623627 117.258583,262.333405 131.752930,266.139313   C151.574554,271.344055 171.576706,275.509155 192.235733,275.776520   C197.181152,275.840546 199.750122,274.185028 201.598251,269.730652   C211.273148,246.412277 228.525452,230.642960 251.015060,219.796661   C278.465759,206.557709 305.683655,192.834808 332.954926,179.226364   C337.489899,176.963394 342.145508,174.794998 346.306000,171.435806   C331.900848,163.191299 329.283661,159.908295 328.461365,148.565460  M68.678055,310.794098   C65.730171,322.929596 63.872086,335.297394 62.509220,347.650299   C60.315189,367.536743 61.080727,387.541779 61.954990,407.521454   C62.177029,412.595825 63.848095,415.023468 68.916389,415.687683   C82.921684,417.523132 96.858788,419.905731 110.882668,421.566956   C143.068527,425.379639 175.287704,428.912140 207.498642,432.510895   C214.369507,433.278564 221.262924,433.844330 228.330734,434.520813   C228.703018,431.824677 227.659637,430.057953 226.884903,428.282379   C218.426407,408.897247 209.158386,389.895203 199.200165,371.245331   C195.376572,364.084442 189.806351,358.340057 182.214798,354.897522   C146.581421,338.739044 110.124382,324.570221 73.803169,310.075470   C72.297859,309.474792 70.513695,307.885803 68.678055,310.794098  M371.311615,177.294449   C371.521973,180.175812 369.557281,181.310989 367.372894,182.411514   C358.746613,186.757446 350.174225,191.210541 341.538971,195.538330   C339.174194,196.723511 337.250244,197.946136 337.364563,201.045563   C337.898102,215.513611 336.352356,230.024368 338.274414,244.466766   C339.073914,250.474411 341.376678,253.099487 347.386963,253.825180   C361.795990,255.564987 376.327545,254.773514 390.780243,255.699326   C392.564392,255.813599 394.001526,255.141586 395.235809,253.866577   C398.132874,250.873901 401.054321,247.904495 403.990967,244.950638   C405.381042,243.552460 406.316406,242.105606 405.153595,240.097534   C400.084015,231.342804 395.027649,222.580399 389.620544,213.222046   C385.349243,217.243439 381.525635,220.868668 377.674103,224.463959   C370.862640,230.822205 364.716827,237.923370 357.061340,243.338013   C352.833344,246.328445 349.123199,245.697067 345.503845,241.867752   C342.142670,238.311554 342.144531,234.892761 345.633026,231.401474   C347.159271,229.873962 348.472076,228.134750 349.905457,226.512604   C360.614746,214.393051 372.292419,203.212891 383.650146,191.722046   C385.029022,190.326981 386.937927,189.090805 386.491791,186.754425   C385.463196,181.367325 384.772308,175.729431 380.340088,171.822739   C375.704163,167.736496 374.111359,162.512314 373.994843,156.645081   C373.816193,147.648636 373.240417,138.688324 371.663574,129.820755   C368.029602,109.385017 361.837372,90.101509 347.588440,74.188858   C342.230682,68.205544 336.282349,66.270599 328.427795,68.035553   C309.975647,72.181786 292.175629,78.098236 275.258423,86.542732   C246.198563,101.048424 216.010757,112.017960 183.863846,117.569267   C163.528000,121.080978 143.154434,124.769936 122.670212,126.540649   C107.635902,127.840256 101.317764,135.225388 98.839539,148.614105   C97.524925,155.716354 95.273056,162.663940 95.405357,170.033142   C98.424797,170.523132 100.410133,169.140778 102.483490,168.209198   C154.581833,144.800476 206.488007,120.935204 260.223083,101.396362   C280.570679,93.997681 301.021332,86.905609 322.473053,83.284790   C333.517548,81.420601 343.788208,83.047623 352.453674,90.628716   C364.364502,101.048996 368.412018,114.735924 368.373505,130.051605   C368.354095,137.766647 367.481110,139.107529 360.132324,141.554077   C356.504944,142.761719 352.735779,143.559967 349.341675,145.426010   C347.516449,146.429489 345.674194,147.510437 346.481781,149.995026   C347.204742,152.219162 349.147034,152.931259 351.292328,152.715805   C353.936066,152.450302 356.563202,151.983566 359.182892,151.520966   C367.576050,150.038803 371.852936,153.384140 371.985168,161.974976   C372.059265,166.790283 371.575409,171.614212 371.311615,177.294449  M591.883179,425.385071   C590.089600,432.246704 587.195129,438.859955 586.944336,445.952972   C588.799377,447.475555 590.690796,446.963989 592.468811,446.876099   C617.084839,445.658936 641.519897,442.510498 665.912781,439.270538   C693.626648,435.589539 721.036682,430.052490 748.031860,422.691864   C761.672119,418.972565 775.319397,415.228241 788.109375,408.936218   C792.309509,406.869965 793.509949,403.968475 792.483521,399.624512   C790.741943,392.253967 786.992126,386.133026 781.502319,380.968964   C778.282593,377.940369 774.892212,377.463959 771.024170,379.584381   C767.376221,381.584229 763.753967,383.663177 759.972351,385.381561   C738.665710,395.063263 715.818604,397.507965 692.878418,399.312622   C675.528503,400.677521 658.817200,403.625519 645.168091,415.706482   C643.690186,417.014557 641.934143,418.117035 640.134521,418.935333   C628.478333,424.235474 609.588684,422.732513 604.625183,404.474701   C604.297852,403.270538 604.236938,401.834473 602.539978,400.950104   C597.990051,408.424774 595.101318,416.547241 591.883179,425.385071  M542.500000,448.999573   C549.328308,448.919891 556.158264,448.718719 562.984253,448.809998   C566.592224,448.858246 568.168030,447.671234 568.880859,443.856598   C572.914734,422.270172 579.154846,401.476990 592.325684,383.404236   C592.802124,382.750427 593.320374,382.031372 592.617371,380.548431   C588.490601,378.786530 583.948059,376.780243 579.354919,374.897675   C559.487305,366.754669 539.595093,358.671753 519.736694,350.506439   C516.038574,348.985840 514.154297,349.524017 514.106567,354.023285   C514.037781,360.512207 513.370056,366.996216 513.343933,373.483887   C513.247620,397.401978 508.651733,420.410553 499.818451,442.606262   C497.743195,447.820740 498.216614,448.568298 504.025818,448.647156   C516.516479,448.816681 529.008545,448.888367 542.500000,448.999573  M337.553650,466.757385   C357.482086,468.048889 377.396088,469.675690 397.343170,470.533325   C415.643097,471.320160 433.981812,471.222992 452.300171,471.486450   C516.247681,472.406281 580.188416,472.660400 643.926025,465.825897   C677.024475,462.276794 710.018616,458.172729 742.494812,450.663788   C762.313416,446.081421 781.894653,440.735626 800.109802,431.374084   C801.970459,430.417847 805.221863,429.953949 804.038879,426.662018   C802.824951,423.284149 799.925964,423.866760 797.270630,424.694336   C795.686340,425.188110 794.163391,425.890686 792.635193,426.550964   C775.608276,433.907471 757.795349,438.782654 739.869690,443.311279   C714.351562,449.758057 688.496643,454.416290 662.440369,458.038025   C642.000488,460.879150 621.472839,462.830780 600.895996,464.312164   C584.116089,465.520233 567.300964,465.886505 550.497375,466.571655   C509.007843,468.263397 467.558838,466.832672 426.100128,465.795380   C396.645325,465.058380 367.230835,463.419708 337.840485,461.368622   C312.440643,459.596039 287.012360,458.115906 261.660278,455.807800   C236.823074,453.546570 211.990631,451.181732 187.185577,448.511841   C158.911972,445.468658 130.700928,441.941498 102.462502,438.629852   C90.075958,437.177216 77.731956,435.360657 65.371445,433.688660   C63.841915,433.481750 62.122528,433.136627 61.590153,435.015106   C61.021030,437.023254 62.812256,437.536804 64.244186,437.904510   C66.814873,438.564606 69.405914,439.245117 72.031441,439.576569   C98.437943,442.910004 124.841599,446.271179 151.269623,449.427216   C172.577469,451.971771 193.899902,454.420441 215.248779,456.587494   C235.107590,458.603271 255.001862,460.287415 274.895294,461.939789   C295.450165,463.647095 316.022797,465.140320 337.553650,466.757385  M228.208710,259.702423   C225.776474,263.551666 222.171875,266.763763 221.424545,271.643250   C225.377121,272.149689 227.251266,272.025024 231.836716,270.589417   C261.019836,261.452942 288.568329,248.464691 315.841095,234.836746   C317.460846,234.027405 319.385895,233.197937 319.479034,231.066116   C319.817780,223.312439 319.898499,215.559860 318.331299,208.000015   C316.108002,207.568817 314.672089,208.592712 313.228943,209.294052   C291.660858,219.775742 270.114624,230.300903 249.145035,241.959900   C241.199005,246.377838 234.002884,251.648010 228.208710,259.702423  M664.797668,368.975891   C652.922852,367.319183 641.316650,364.321991 629.614807,361.817230   C626.615784,361.175293 625.071167,361.892944 624.707764,364.840729   C623.303894,376.230042 621.958557,387.636627 622.407593,399.138672   C622.573181,403.380768 626.492554,405.584534 630.225220,403.594086   C633.297791,401.955658 636.159302,399.901733 639.034790,397.916718   C651.592651,389.247803 665.164612,383.478638 680.616699,382.482208   C690.231689,381.862183 699.824280,380.816284 709.404663,379.759796   C719.444397,378.652649 729.506470,377.540192 739.474548,373.712646   C736.761353,372.447449 734.341553,372.382080 731.912903,372.386566   C709.773499,372.427612 687.621765,372.724213 664.797668,368.975891  M512.802063,311.305908   C514.649292,309.094788 517.445068,307.643494 518.559937,304.265839   C511.751953,299.941223 505.348969,295.195984 497.622406,292.861176   C492.451385,291.298553 491.242584,292.210266 491.196442,297.385742   C491.147675,302.858978 491.291351,308.334900 491.181976,313.806244   C491.132111,316.300934 492.177704,317.742126 494.309631,318.901550   C501.194061,322.645538 501.499603,322.650391 507.013824,317.068817   C508.762085,315.299194 510.538055,313.556946 512.802063,311.305908  M540.984680,339.304016   C542.830750,339.745026 544.670715,341.464478 546.571899,339.685516   C550.268799,336.226410 553.867432,332.662323 558.025818,328.639618   C550.436584,324.022034 543.783569,319.968414 537.122925,315.927460   C536.083557,315.296906 534.808411,314.794556 533.863647,315.704437   C529.157959,320.236145 524.135254,324.501038 520.038025,330.221924   C526.926453,334.062836 533.731140,336.266876 540.984680,339.304016  M565.840820,349.239624   C578.514465,355.496368 591.552429,360.863770 604.994568,365.237183   C605.233337,365.314880 605.593384,365.019745 605.893738,364.890900   C608.120605,357.492493 607.323364,355.766602 600.596741,353.191010   C594.661072,350.918213 589.126648,347.853851 583.718018,344.544037   C574.155273,338.692169 573.131531,338.881531 566.153015,347.715240   C565.953735,347.967499 565.874329,348.314392 565.840820,349.239624  M444.754639,279.254883   C446.187988,277.290253 448.706238,276.178650 449.499451,272.964691   C442.208160,268.306366 434.816925,263.603180 427.445465,258.869202   C420.634949,254.495407 419.335541,254.812698 414.594818,262.182495   C415.353882,264.398010 417.441071,265.300446 419.176544,266.487030   C425.085205,270.526978 431.003723,274.598389 436.104126,279.612366   C439.112488,282.569733 441.484741,283.119232 444.754639,279.254883  M458.967072,297.673920   C463.130035,299.845886 466.472229,303.496155 471.457306,304.839081   C472.211304,299.634308 471.979584,294.714355 471.816956,289.800354   C471.777771,288.616333 471.342987,287.546021 470.439484,286.714233   C468.195831,284.648590 465.422729,284.481506 464.074615,287.011414   C462.235779,290.462341 454.523438,290.785461 458.967072,297.673920  z"/>
<path fill="#fafafa" opacity="1.000000" stroke="none" d=" M236.888336,200.882111   C219.572845,221.025635 196.186737,226.858459 171.727081,230.194092   C160.843796,231.678299 149.902390,231.591171 138.721008,230.546921   C146.466309,223.586441 155.836807,219.101913 164.332199,212.792740   C161.548401,208.865707 156.455780,208.263794 153.666885,204.657074   C155.182968,201.988876 157.993668,201.487503 160.297272,200.427399   C166.009079,197.798935 170.104324,193.751404 172.788727,188.077133   C180.305298,172.188599 193.537277,165.236328 210.495010,164.768585   C217.743729,164.568619 224.678558,163.974640 231.259003,160.512924   C235.339828,158.366135 236.760223,159.465225 237.418243,164.199554   C237.693039,166.176544 238.013336,168.147919 238.360626,170.113403   C238.410019,170.392883 238.730423,170.624466 239.236938,171.283707   C247.763275,167.421539 254.926239,160.758102 264.357941,157.836349   C258.120422,174.027969 248.783264,188.055435 236.888336,200.882111  z"/>
</svg>